<?xml version="1.0" encoding="UTF-8"?>
<!DOCTYPE svg PUBLIC "-//W3C//DTD SVG 1.1//EN" "http://www.w3.org/Graphics/SVG/1.1/DTD/svg11.dtd">
<!-- Creator: CorelDRAW X8 -->
<svg xmlns="http://www.w3.org/2000/svg" xml:space="preserve" width="239px" height="297px" version="1.1" style="shape-rendering:geometricPrecision; text-rendering:geometricPrecision; image-rendering:optimizeQuality; fill-rule:evenodd; clip-rule:evenodd"
viewBox="0 0 771899 959221"
 xmlns:xlink="http://www.w3.org/1999/xlink">
 <defs>
  <style type="text/css">
   <![CDATA[
    .fil1 {fill:#333366}
    .fil0 {fill:white}
   ]]>
  </style>
 </defs>
 <g id="Capa_x0020_1">
  <metadata id="CorelCorpID_0Corel-Layer"/>
  <g id="_2578858510544">
   <g>
    <path class="fil0" d="M132418 682210c19176,18737 21941,74683 49464,124185 46317,83312 174939,28343 177979,-92585 1961,-78024 -31295,-71700 -92878,-82968 -106684,-19516 -136267,-143942 -45406,-195985 50105,-28693 97861,-7969 124201,26703 51341,67584 4268,78760 6279,134977l61347 1819c-12707,-76414 -34954,-91498 18104,-147477 16578,-17498 35030,-29186 69152,-28438 84669,1861 123682,110040 71902,169480 -38498,44193 -79295,40660 -147104,47561 -6004,19542 -15022,32234 -17883,58513 -6718,61705 19123,126245 82011,143045 22766,6084 50631,5039 68389,-5039 48571,-27565 52790,-106627 73306,-153044 22575,-1365 57692,17822 72794,18631 31708,-21831 10738,-142065 4353,-182309 -11414,-71898 -21969,-104334 -56430,-153974 -130598,-188134 -402952,-192468 -543567,11165 -28728,41603 -50620,96774 -52325,159658 -943,34900 11699,162614 24638,183232 23434,-9185 38349,-32229 51674,-37150z"/>
    <path class="fil0" d="M0 959221l771899 0 0 -422463c-5672,16795 -2448,45665 -4646,65962 -10013,92440 -48888,169183 -102602,239785 -7389,9716 -9308,9445 -17849,17478 -18943,17811 -21571,25379 -54602,45536 -69804,42590 -124709,54011 -224061,50189 -280109,-10784 -368292,-200440 -366445,-455106 839,-115591 24787,-377141 56205,-483825 21812,9880 56048,46157 73103,62098 11932,11158 22396,21618 34271,33603 71280,71937 60866,82236 118273,64388 43002,-13371 133146,-18486 180459,-4574 13706,4032 36617,15888 51780,13893 38482,-5058 151761,-163835 213265,-182092 12325,68336 29098,184377 33866,253513 2583,37471 3250,250889 8983,268207l0 -525813 -771899 0 0 959221z"/>
    <path class="fil0" d="M568583 209931c8339,12188 24307,22312 36716,34213 17597,16876 111880,98567 120211,101119 -6020,-35041 -6745,-80932 -10719,-116411 -4002,-35740 -7443,-77926 -9613,-112692 -3060,-49007 -24021,-6729 -64685,26900 -23948,19810 -51055,44487 -71910,66871z"/>
    <path class="fil0" d="M57273 335890l104796 -96220c11878,-12093 24154,-19760 35258,-33283 -22853,-12291 -98078,-96075 -116037,-98944 -9338,13100 -11818,87981 -14049,111712 -3193,33931 -10529,82739 -9968,116735z"/>
    <path class="fil0" d="M381105 828741c-18211,15106 -5768,15484 -45516,39787 -14831,9067 -44116,15545 -53100,30189 57719,10155 133001,21694 192590,6462 -3288,-26245 -5207,-7351 -49808,-35381 -16453,-10345 -29243,-32935 -44166,-41057z"/>
    <path class="fil0" d="M339980 548736c-30758,-4448 -95954,-19516 -134081,80 -6153,3166 -2941,1148 -7145,5188 21618,13313 30822,42613 72265,40114 29967,-1804 60542,-26744 68961,-45382z"/>
    <path class="fil0" d="M426007 549048c6916,11818 45658,47069 71288,46039 51692,-2075 51559,-35026 70270,-44627 -67622,-1114 -23609,-14217 -141558,-1412z"/>
   </g>
   <path class="fil1" d="M381105 828741c14923,8122 27713,30712 44166,41057 44601,28030 46520,9136 49808,35381 -59589,15232 -134871,3693 -192590,-6462 8984,-14644 38269,-21122 53100,-30189 39748,-24303 27305,-24681 45516,-39787zm44902 -279693c117949,-12805 73936,298 141558,1412 -18711,9601 -18578,42552 -70270,44627 -25630,1030 -64372,-34221 -71288,-46039zm-86027 -312c-8419,18638 -38994,43578 -68961,45382 -41443,2499 -50647,-26801 -72265,-40114 4204,-4040 992,-2022 7145,-5188 38127,-19596 103323,-4528 134081,-80zm-207562 133474c-13325,4921 -28240,27965 -51674,37150 -12939,-20618 -25581,-148332 -24638,-183232 1705,-62884 23597,-118055 52325,-159658 140615,-203633 412969,-199299 543567,-11165 34461,49640 45016,82076 56430,153974 6385,40244 27355,160478 -4353,182309 -15102,-809 -50219,-19996 -72794,-18631 -20516,46417 -24735,125479 -73306,153044 -17758,10078 -45623,11123 -68389,5039 -62888,-16800 -88729,-81340 -82011,-143045 2861,-26279 11879,-38971 17883,-58513 67809,-6901 108606,-3368 147104,-47561 51780,-59440 12767,-167619 -71902,-169480 -34122,-748 -52574,10940 -69152,28438 -53058,55979 -30811,71063 -18104,147477l-61347 -1819c-2011,-56217 45062,-67393 -6279,-134977 -26340,-34672 -74096,-55396 -124201,-26703 -90861,52043 -61278,176469 45406,195985 61583,11268 94839,4944 92878,82968 -3040,120928 -131662,175897 -177979,92585 -27523,-49502 -30288,-105448 -49464,-124185zm-75145 -346320c-561,-33996 6775,-82804 9968,-116735 2231,-23731 4711,-98612 14049,-111712 17959,2869 93184,86653 116037,98944 -11104,13523 -23380,21190 -35258,33283l-104796 96220zm511310 -125959c20855,-22384 47962,-47061 71910,-66871 40664,-33629 61625,-75907 64685,-26900 2170,34766 5611,76952 9613,112692 3974,35479 4699,81370 10719,116411 -8331,-2552 -102614,-84243 -120211,-101119 -12409,-11901 -28377,-22025 -36716,-34213zm203316 326827l0 -10945c-5733,-17318 -6400,-230736 -8983,-268207 -4768,-69136 -21541,-185177 -33866,-253513 -61504,18257 -174783,177034 -213265,182092 -15163,1995 -38074,-9861 -51780,-13893 -47313,-13912 -137457,-8797 -180459,4574 -57407,17848 -46993,7549 -118273,-64388 -11875,-11985 -22339,-22445 -34271,-33603 -17055,-15941 -51291,-52218 -73103,-62098 -31418,106684 -55366,368234 -56205,483825 -1847,254666 86336,444322 366445,455106 99352,3822 154257,-7599 224061,-50189 33031,-20157 35659,-27725 54602,-45536 8541,-8033 10460,-7762 17849,-17478 53714,-70602 92589,-147345 102602,-239785 2198,-20297 -1026,-49167 4646,-65962z"/>
  </g>
 </g>
</svg>
