<?xml version="1.0" encoding="UTF-8"?>
<!DOCTYPE svg PUBLIC "-//W3C//DTD SVG 1.1//EN" "http://www.w3.org/Graphics/SVG/1.1/DTD/svg11.dtd">
<!-- Creator: CorelDRAW X8 -->
<svg xmlns="http://www.w3.org/2000/svg" xml:space="preserve" width="60px" height="74px" version="1.1" style="shape-rendering:geometricPrecision; text-rendering:geometricPrecision; image-rendering:optimizeQuality; fill-rule:evenodd; clip-rule:evenodd"
viewBox="0 0 240946 298869"
 xmlns:xlink="http://www.w3.org/1999/xlink">
 <defs>
  <style type="text/css">
   <![CDATA[
    .fil3 {fill:#3D4770}
    .fil1 {fill:#989EB3}
    .fil2 {fill:#EFF0F3}
    .fil0 {fill:#FEFEFE}
   ]]>
  </style>
 </defs>
 <g id="Capa_x0020_1">
  <metadata id="CorelCorpID_0Corel-Layer"/>
  <path class="fil0" d="M24273 224893c1615,-643 1265,-163 2683,-1097l13559 -9785c9570,9250 9469,66285 50812,45923 12072,-5945 20035,-20888 20797,-34317 1427,-25177 -7764,-26063 -26644,-28453 -35371,-4481 -44873,-44049 -17932,-61179 13813,-8784 30914,-5378 40243,7440 14952,20540 3625,24100 1777,42507l9830 214 8880 436 307 -2051c-2741,-21050 -11402,-25806 6323,-44901 10636,-11459 33541,-11399 43172,2270 10050,14263 11869,29443 530,43431 -11541,14241 -29392,11116 -45551,14294 -12398,21663 -6074,55893 19613,62805 38443,10343 38174,-39528 45060,-49687l11772 2942c5175,1382 -13988,16418 -5969,33510 22072,-41428 41191,-52500 12088,-113445 -13621,-33896 -41767,-57818 -77815,-64790 -37493,-7250 -77419,10084 -100061,40280 -29480,39316 -20798,70462 -13474,113653z"/>
  <polygon class="fil0" points="177202,64878 225709,107373 226730,107914 219746,29539 217360,28295 "/>
  <polygon class="fil0" points="17157,105306 60084,64872 61759,64768 26147,32509 23963,33667 "/>
  <path class="fil0" d="M119017 258407c-5997,6388 -6201,7891 -14274,12912 -4772,2966 -14734,5806 -17068,8576 8225,4424 53161,6408 60659,2381 -320,-7441 -3836,-2133 -16374,-11288 -5236,-3824 -9206,-9972 -12943,-12581z"/>
  <path class="fil0" d="M62642 171169l-546 1095c7525,5315 9026,13254 22199,12970 8501,-183 18139,-8124 22018,-14067 -8166,-6012 -11395,-11635 -20865,-11754 -8641,-110 -17506,2907 -22806,11756z"/>
  <path class="fil0" d="M176306 171945c-26025,-13727 -19821,-12023 -43596,-810 992,1762 15616,15101 21003,14601 3901,-362 11271,-1675 14119,-4070l8474 -9721z"/>
  <path class="fil1" d="M119398 186146c3068,1297 6864,1316 10416,963l-1229 -2578 -307 2051 -8880 -436z"/>
  <polygon class="fil1" points="62096,172264 62642,171169 60317,169879 "/>
  <polygon class="fil2" points="176306,171945 177582,171918 176464,170825 "/>
  <path class="fil3" d="M119017 258407c3737,2609 7707,8757 12943,12581 12538,9155 16054,3847 16374,11288 -7498,4027 -52434,2043 -60659,-2381 2334,-2770 12296,-5610 17068,-8576 8073,-5021 8277,-6524 14274,-12912zm57289 -86462l158 -1120 1118 1093 -1276 27zm0 0l-8474 9721c-2848,2395 -10218,3708 -14119,4070 -5387,500 -20011,-12839 -21003,-14601 24377,-2037 21147,-3146 43596,810zm-113664 -776c21085,-5052 18407,-4171 43671,-2 -3879,5943 -13517,13884 -22018,14067 -13173,284 -14674,-7655 -22199,-12970l-1779 -2385 2325 1290zm-35686 52627l-2683 1097c-7324,-43191 -16006,-74337 13474,-113653 22642,-30196 62568,-47530 100061,-40280 36048,6972 64194,30894 77815,64790 558,-5833 19136,83808 2846,83406 -1821,-46 -2661,-2784 -8058,-3408l-12860 -3302c-6887,10159 -6436,60327 -44879,49984 -25687,-6912 -32011,-41142 -19613,-62805 16159,-3178 34010,-53 45551,-14294 11339,-13988 9520,-29168 -530,-43431 -9631,-13669 -32536,-13729 -43172,-2270 -17725,19095 -9064,23851 -6323,44901l1229 2578c-3552,353 -7348,334 -10416,-963l-9830 -214c1848,-18407 13175,-21967 -1777,-42507 -9329,-12818 -26430,-16224 -40243,-7440 -26941,17130 -17439,56698 17932,61179 18880,2390 28071,3276 26644,28453 -762,13429 -8725,28372 -20797,34317 -41343,20362 -40759,-38449 -50329,-47698l-14042 11560zm-2993 -190129l2184 -1158 35612 32259 -1675 104 -42927 40434 6806 -71639zm193397 -5372l2386 1244 6984 78375 -1021 -541 -48507 -42495 40158 -36583zm-199817 -24248c-7368,36803 -11842,58072 -13820,96440 -9483,85771 -10402,196536 118713,198278 61431,2400 100090,-37192 115488,-97599 6065,-27635 1111,-69851 1189,-101115 93,-37313 -6175,-64328 -11165,-100051 -12522,4793 -35624,29293 -45267,39704 -30100,32501 -18567,10839 -57871,10832 -13591,-3 -24988,256 -38123,4449 -15929,5086 -12386,2280 -24889,-10223 -7564,-7564 -36824,-37800 -44255,-40715z"/>
 </g>
</svg>
