<?xml version="1.0" encoding="UTF-8"?>
<!DOCTYPE svg PUBLIC "-//W3C//DTD SVG 1.1//EN" "http://www.w3.org/Graphics/SVG/1.1/DTD/svg11.dtd">
<!-- Creator: CorelDRAW X8 -->
<svg xmlns="http://www.w3.org/2000/svg" xml:space="preserve" width="45.4467in" height="9.8544in" version="1.1" style="shape-rendering:geometricPrecision; text-rendering:geometricPrecision; image-rendering:optimizeQuality; fill-rule:evenodd; clip-rule:evenodd"
viewBox="0 0 45453 9856"
 xmlns:xlink="http://www.w3.org/1999/xlink">
 <defs>
  <style type="text/css">
   <![CDATA[
    .fil2 {fill:#F4DFBB}
    .fil6 {fill:#F4DFBB}
    .fil3 {fill:#000000}
   ]]>
  </style>
 </defs>
 <g id="Capa_x0020_1">
  <metadata id="MagicPets-Layer"/>
  <path class="fil3" d="M40535 5730c986,-471 2001,1258 700,1700 -1257,429 -1814,-1143 -700,-1700zm-371 86c-1115,1086 1071,-1086 0,0zm2157 -272c-85,1544 100,-1557 0,0zm-4701 2287c-29,-501 -186,-901 100,-1329 186,-315 586,-686 586,-1029 0,-372 -343,-1015 -157,-1300 371,-486 714,28 800,442 371,1672 -343,1415 -743,2344 -343,814 500,1886 1272,1700 400,-85 743,-271 1057,-514 615,-443 272,-529 829,0 400,357 686,400 1214,329 272,-29 1015,-186 1101,-458 128,-400 -457,-400 -543,-986 -72,-471 -129,-971 -129,-1429 -28,-714 300,-2972 557,-871 86,714 -128,2358 558,2629 671,314 743,-186 800,-672 314,-2114 -457,-4458 -2758,-5072 -2472,-629 -5258,1257 -5416,3929 -28,586 315,2001 872,2287l0 0 0 0z"/>
  <path class="fil6" d="M19701 5016l-1043 0 0 -1515 1015 -214 28 1729 0 0zm-1457 -2230c-29,715 128,1915 -172,2501 -286,529 -1643,257 -2143,72l-29 -929c272,85 1243,643 1358,0 -343,-72 -801,143 -1115,-186 -243,-214 -243,-743 -114,-1029 271,-643 1600,-429 2215,-429l0 0zm2786 1301l972 -29 -72 886c-1229,415 -2015,-143 -1857,-1443 557,-186 471,-343 743,-715l1143 58 43 957c-372,0 -1029,-300 -972,286l0 0 0 0zm-10045 900l-1144 0 0 -2815 1144 29 428 614 429 -643 1186 0 0 2844 -1186 -29 0 -1329 -400 457 -429 -500 -28 1372 0 0zm2557 -1372l0 -671c443,-215 1372,-286 1801,57 371,343 243,1514 214,1986 -429,86 -1786,57 -2072,-229 -128,-1071 429,-828 1143,-986 -185,-400 -857,-157 -1086,-157l0 0 0 0zm5116 -2000c986,-157 486,-286 829,-686 100,157 186,371 314,500 186,186 400,143 529,214 -500,529 -315,586 -286,1143 -986,-428 -271,-285 -1115,29 0,-557 215,-800 -342,-1143l-29 -29 100 -28 0 0zm-629 514c-986,0 -1229,-28 -2229,229 -57,28 -672,-186 -929,-229 -243,-28 -1043,43 -1171,0l-58 -400c-343,-271 -1171,-300 -1586,-243 -243,29 -557,157 -771,86 -243,-57 -586,-114 -829,-114 -1515,28 -1329,214 -1329,2472 0,457 -157,1429 271,1614 529,215 1086,215 1644,115 686,-115 957,100 1643,71 214,0 614,-129 800,-129 286,29 529,129 829,129 286,0 686,-71 900,0 215,29 400,214 658,300 585,257 986,186 1643,186 886,-29 771,-486 1386,-486 1429,29 1086,-314 1572,-129 414,158 1272,186 1672,29 657,-243 528,-800 528,-1386 0,-1772 215,-2143 -1700,-2143 28,-586 371,-829 -457,-1144 -558,-243 -443,-771 -1086,-743 -286,29 -400,158 -558,372 -285,400 -157,186 -528,371 -715,372 -400,715 -315,1172l0 0 0 0z"/>
  <path class="fil6" d="M21745 7588l843 -43 -43 1586 -772 29 -28 -1572 0 0zm9845 1600l-843 -28 657 -1515 1200 -29 586 1544 -828 0c-100,-243 128,-243 -372,-243 -372,0 -286,-72 -400,271l0 0zm-6659 -28l657 -1572 1201 28 586 1544c-1444,57 -429,-243 -1229,-243 -872,0 400,271 -1215,243zm5630 0l-800 0 0 -1544 800 0 0 1544zm-14418 -1615c100,-29 1272,-29 1400,0 29,157 29,500 0,657l-400 -28 -43 928 -800 29 29 -929 -429 -28 29 -586 214 -43 0 0 0 0zm13432 1615l-829 0 -228 -586 -115 0 -71 557 -800 29 28 -1544c315,0 1586,-100 1772,157 215,301 -100,543 -71,701 71,157 314,400 314,686l0 0 0 0zm-8016 -29l-800 0c-129,-214 -29,-529 -401,-586l29 557 -843 29 0 -1586c414,-29 1529,-86 1772,228 243,329 -57,372 -29,643 29,186 272,429 272,715l0 0 0 0zm-2472 -986l0 357c-315,72 -500,-114 -529,186l714 71 29 372 -1543 0 0 -1586 1543 0 0 371c-186,43 -557,-57 -686,43 -300,243 372,186 472,186l0 0zm-4030 -43c186,43 314,-28 500,0l0 400 -529 43 29 186 743 0 0 371 -1572 0 29 -1557 1515 0 28 371 -743 0 0 186 0 0zm8302 1058l-400 0c-43,-129 -43,-501 29,-586l-29 -1029c886,-29 486,100 1015,529l-58 -486 858 0 -29 1543c-929,86 -486,-72 -986,-443l0 472 -400 0 0 0 0 0zm-10745 -101l-586 -1514 814 -29 215 500 185 -500 801 0c0,129 -343,900 -401,1086 -57,157 -128,429 -285,500 -115,29 -643,0 -743,-43l0 0 0 0zm-643 -1943c-658,57 -401,557 -286,929 128,286 343,929 471,1172 215,371 901,343 1272,285 614,-128 772,0 1386,0 2101,0 4173,29 6259,29 1072,0 2129,0 3215,29 400,28 1172,28 1572,-29 400,-100 929,29 1400,29 1072,0 2129,0 3187,28 614,29 1043,-86 1514,-86 429,0 929,243 1415,58 557,-215 257,-643 100,-986 -500,-1486 -400,-1401 -1858,-1401 -242,0 -471,129 -614,129 -257,0 -343,-129 -686,-129 -557,0 -900,100 -1457,43 -400,-71 -1144,-71 -1515,29 -129,28 -1143,-72 -1386,-100 -314,0 -443,100 -715,128 -185,0 -400,-100 -657,-128 -957,-29 -2186,0 -3144,71 -343,29 -1000,-71 -1457,-71 -529,28 -1029,-29 -1586,-29 -1072,29 -2158,0 -3215,0 -958,0 -2344,-57 -3215,0l0 0 0 0z"/>
  <path class="fil6" d="M29118 4330c-157,1329 -3101,743 -2086,-1043 314,-558 1243,-658 1671,-186 158,186 415,743 315,929 -86,143 -872,0 -1058,114 186,471 843,214 1158,186zm-4987 -2101c686,29 2200,-214 2500,529 186,400 72,929 -214,1172 -400,371 -771,57 -1172,28l29 1086 -1143 -28 0 -2787 0 0zm6402 57c69,0 71,0 71,0l0 558 457 0 -28 285 0 343 -500 0 71 701 429 -29 0 772c-400,185 -929,157 -1301,-86 -343,-257 -185,-986 -214,-1358l-343 -43 1358 -1143 0 0zm2972 2329c28,-500 -129,-314 -558,-585 -343,-229 -428,-372 -271,-843 214,-529 1415,-401 1858,-215l-258 529c-271,-29 -428,-343 -743,0 186,157 658,243 843,371 243,115 215,701 58,929 -272,400 -1515,300 -1915,86l185 -557 801 285 0 0 0 0zm-2015 -628c28,-186 314,-329 214,-486 -86,-129 -300,-214 -371,-443 -186,-429 128,-929 628,-829 429,57 615,743 401,1058 -215,300 -529,557 -872,700l0 0zm-5444 771c471,100 657,715 1271,901 558,157 1272,157 1801,-186 271,-186 329,28 671,157 501,214 1272,186 1701,-243 314,-314 186,-529 257,-743 400,615 -257,643 929,986 986,314 2401,157 2558,-1015 71,-442 -29,-471 -115,-843 -71,-300 86,-528 58,-828 -58,-629 -643,-743 -1172,-772 -286,-43 -772,29 -958,-43 -257,-57 -285,-300 -528,-429 -815,-428 -1143,100 -1586,-57 -615,-257 -801,57 -1301,429 -829,743 -371,286 -1171,129 -744,-186 -986,214 -1572,-286 -529,-429 -2815,-586 -3258,-157 -272,285 -300,3258 -115,3629 186,457 1144,343 1572,300 1329,-57 658,-486 958,-929l0 0 0 0z"/>
  <path class="fil3" d="M768 7245c57,-29 57,0 100,-29l428 -314c300,271 300,2129 1644,1457 400,-185 643,-657 671,-1086 29,-800 -243,-843 -857,-928 -1158,-158 -1458,-1429 -600,-1987 471,-271 1000,-157 1300,257 500,672 129,772 71,1358l301 29 285 0 29 -58c-86,-685 -372,-843 186,-1457 343,-372 1086,-372 1386,86 343,443 414,928 43,1400 -372,457 -958,343 -1486,457 -372,686 -186,1801 643,2015 1243,343 1243,-1272 1457,-1600l372 85c157,58 -472,529 -186,1086 714,-1329 1329,-1671 371,-3658 -428,-1071 -1329,-1857 -2500,-2072 -1215,-243 -2487,315 -3230,1301 -929,1271 -643,2257 -428,3658l0 0 0 0z"/>
  <path class="fil2" d="M37620 7831c-557,-286 -900,-1701 -872,-2287 158,-2672 2944,-4558 5416,-3929 2301,614 3072,2958 2758,5072 -57,486 -129,986 -800,672 -686,-271 -472,-1915 -558,-2629 -257,-2101 -585,157 -557,871 0,458 57,958 129,1429 86,586 671,586 543,986 -86,272 -829,429 -1101,458 -528,71 -814,28 -1214,-329 -557,-529 -214,-443 -829,0 -314,243 -657,429 -1057,514 -772,186 -1615,-886 -1272,-1700 400,-929 1114,-672 743,-2344 -86,-414 -429,-928 -800,-442 -186,285 157,928 157,1300 0,343 -400,714 -586,1029 -286,428 -129,828 -100,1329l0 0 0 0zm2972 -6774c-2572,215 -4429,2001 -4401,4630 0,1115 757,2401 1772,2787 243,100 500,285 714,371 329,100 772,-28 1044,100 371,157 557,1015 1371,900 586,-100 558,-871 1329,-971 829,-86 2172,-958 2672,-1601 186,-285 386,-1700 358,-2100 -243,-2672 -2144,-4401 -4859,-4116l0 0z"/>
  <polygon class="fil3" points="11013,3615 11442,4115 11842,3658 11842,4987 13028,5016 13028,2172 11842,2172 11413,2815 10985,2201 9841,2172 9841,4987 10985,4987 "/>
  <path class="fil3" d="M17015 3987c-343,-186 -186,-615 185,-615 0,286 86,558 -185,615zm1229 -1201c-615,0 -1944,-214 -2215,429 -129,286 -129,815 114,1029 314,329 772,114 1115,186 -115,643 -1086,85 -1358,0l29 929c500,185 1857,457 2143,-72 300,-586 143,-1786 172,-2501l0 0z"/>
  <path class="fil3" d="M25274 2815l429 57 -57 500 -372 129 0 -686zm-1143 2201l1143 28 -29 -1086c401,29 772,343 1172,-28 286,-243 400,-772 214,-1172 -300,-743 -1814,-500 -2500,-529l0 2787 0 0z"/>
  <path class="fil3" d="M14443 4644c-186,-129 -343,-157 -315,-400 100,-71 315,-71 415,-43 0,129 -43,343 -100,443zm-901 -1029c229,0 901,-243 1086,157 -714,158 -1271,-85 -1143,986 286,286 1643,315 2072,229 29,-472 157,-1643 -214,-1986 -429,-343 -1358,-272 -1801,-57l0 671 0 0 0 0z"/>
  <path class="fil3" d="M27903 3401l558 0c0,257 -343,371 -558,343l0 -343zm1215 929c-315,28 -972,285 -1158,-186 186,-114 972,29 1058,-114 100,-186 -157,-743 -315,-929 -428,-472 -1357,-372 -1671,186 -1015,1786 1929,2372 2086,1043z"/>
  <path class="fil3" d="M21030 4087c-57,-586 600,-286 972,-286l-43 -957 -1143 -58c-272,372 -186,529 -743,715 -158,1300 628,1858 1857,1443l72 -886 -972 29 0 0 0 0z"/>
  <path class="fil3" d="M33505 4615l-801 -285 -185 557c400,214 1643,314 1915,-86 157,-228 185,-814 -58,-929 -185,-128 -657,-214 -843,-371 315,-343 472,-29 743,0l258 -529c-443,-186 -1644,-314 -1858,215 -157,471 -72,614 271,843 429,271 586,85 558,585l0 0 0 0z"/>
  <path class="fil3" d="M31033 3129l0 -257c-158,0 -315,43 -472,-28 -28,-186 43,-372 -28,-558l-1358 1143 343 43c29,372 -129,1101 214,1358 372,243 901,271 1301,86l0 -772 -429 29 -71 -701 500 0 0 -343 0 0z"/>
  <path class="fil2" d="M40535 5730c-1114,557 -557,2129 700,1700 1301,-442 286,-2171 -700,-1700z"/>
  <path class="fil3" d="M20387 8202l-29 -343 243 29c0,186 -57,314 -214,314l0 0zm1172 929c0,-286 -243,-529 -272,-715 -28,-271 272,-314 29,-643 -243,-314 -1358,-257 -1772,-228l0 1586 843 -29 -29 -557c372,57 272,372 401,586l800 0 0 0 0 0z"/>
  <path class="fil3" d="M22988 8574l-29 557 400 29 400 0 0 -472c500,371 57,529 986,443l29 -1543 -858 0 58 486c-529,-429 -129,-558 -1015,-529l29 1029 0 0z"/>
  <path class="fil3" d="M28332 8202c0,-157 -29,-243 129,-314 157,71 157,157 157,314l-286 0zm1243 958c0,-286 -243,-529 -314,-686 -29,-158 286,-400 71,-701 -186,-257 -1457,-157 -1772,-157l-28 1544 800 -29 71 -557 115 0 228 586 829 0 0 0 0 0z"/>
  <path class="fil3" d="M26231 8174c29,85 72,214 72,300l-286 71 57 -343 157 -28 0 0zm-1300 986c1615,28 343,-243 1215,-243 800,0 -215,300 1229,243l-586 -1544 -1201 -28 -657 1572z"/>
  <path class="fil3" d="M31990 8174c57,85 157,242 157,371l-286 0 129 -371zm-400 1014c114,-343 28,-271 400,-271 500,0 272,0 372,243l828 0 -586 -1544 -1200 29 -657 1515 843 28 0 0z"/>
  <path class="fil3" d="M12614 9059c100,43 628,72 743,43 157,-71 228,-343 285,-500 58,-186 401,-957 401,-1086l-801 0 -185 500 -215 -500 -814 29 586 1514 0 0 0 0z"/>
  <path class="fil3" d="M19087 8145c-100,0 -772,57 -472,-186 129,-100 500,0 686,-43l0 -371 -1543 0 0 1586 1543 0 -29 -372 -714 -71c29,-300 214,-114 529,-186l0 -357 0 0z"/>
  <path class="fil3" d="M15028 8545c129,-71 343,-43 501,-43l0 -357 -372 29c-157,-29 -57,0 -100,-72l0 -186 743 0 -28 -371 -1515 0 -29 1557 1572 0 0 -371 -743 0 -29 -186 0 0z"/>
  <polygon class="fil3" points="5683,2101 7269,3472 7298,3472 7084,957 6984,900 "/>
  <path class="fil3" d="M17143 8174c86,-72 243,0 372,-29l0 -600 -1372 0 -214 43 -29 586 429 28 -29 929 800 -29 43 -928 0 0 0 0z"/>
  <polygon class="fil3" points="19673,3287 18658,3501 18658,5016 19701,5016 "/>
  <path class="fil3" d="M18658 1615c-71,0 -100,0 -100,28 0,0 0,0 29,0 0,29 0,29 0,29 557,343 342,586 342,1143 844,-314 129,-457 1115,-29 -29,-557 -214,-614 286,-1143 -129,-71 -343,-28 -529,-214 -128,-129 -214,-343 -314,-500 -343,400 157,529 -829,686l0 0z"/>
  <polygon class="fil3" points="553,3401 1939,2072 1968,2072 825,1057 768,1086 "/>
  <path class="fil3" d="M31490 3987c343,-143 657,-400 872,-700 214,-315 28,-1001 -401,-1058 -500,-100 -814,400 -628,829 71,229 286,314 371,443 100,157 -186,300 -214,486l0 0z"/>
  <polygon class="fil3" points="21773,9160 22545,9131 22588,7545 21745,7588 "/>
  <polygon class="fil3" points="30561,7616 29761,7616 29761,9160 30561,9160 "/>
  <path class="fil3" d="M3826 8331c-186,214 -215,243 -458,400 -157,86 -471,186 -557,271 272,158 1729,215 1943,100 0,-257 -114,-100 -514,-371 -157,-129 -286,-315 -414,-400l0 0z"/>
  <path class="fil2" d="M41492 5473c0,343 801,629 829,71 73,-651 -897,-586 -829,-71l0 0z"/>
  <path class="fil2" d="M39535 5287c-400,372 186,900 629,500 371,-371 -100,-929 -629,-500z"/>
  <path class="fil3" d="M2011 5501l0 43c214,186 271,429 700,429 286,0 600,-286 714,-472 -271,-185 -371,-371 -671,-371 -286,0 -557,100 -743,371z"/>
  <path class="fil3" d="M5655 5544c-829,-443 -615,-414 -1386,-43 28,72 485,501 671,472 129,0 372,-29 472,-129l243 -300z"/>
  <polygon class="fil6" points="25274,3501 25646,3372 25703,2872 25274,2815 "/>
  <path class="fil6" d="M17015 3987c271,-57 185,-329 185,-615 -371,0 -528,429 -185,615z"/>
  <path class="fil6" d="M27903 3744c215,28 558,-86 558,-343l-558 0 0 343z"/>
  <path class="fil6" d="M14443 4644c57,-100 100,-314 100,-443 -100,-28 -315,-28 -415,43 -28,243 129,271 315,400z"/>
  <path class="fil6" d="M28332 8202l286 0c0,-157 0,-243 -157,-314 -158,71 -129,157 -129,314z"/>
  <path class="fil6" d="M26074 8202l-57 343 286 -71c0,-86 -43,-215 -72,-300l-157 28 0 0z"/>
  <path class="fil6" d="M20387 8202c157,0 214,-128 214,-314l-243 -29 29 343 0 0z"/>
  <path class="fil6" d="M31861 8545l286 0c0,-129 -100,-286 -157,-371l-129 371z"/>
  <ellipse class="fil2" cx="2668" cy="5630" rx="114" ry="386"/>
  <path class="fil2" d="M3826 8331c128,85 257,271 414,400 400,271 514,114 514,371 -214,115 -1671,58 -1943,-100 86,-85 400,-185 557,-271 243,-157 272,-186 458,-400l0 0zm1829 -2787l-243 300c-100,100 -343,129 -472,129 -186,29 -643,-400 -671,-472 800,-262 714,-383 1386,43zm-3644 -43c690,-368 604,-335 1414,0 -114,186 -428,472 -714,472 -199,0 -700,-250 -700,-472zm-1143 1715l-100 29c-215,-1401 -501,-2387 428,-3658 743,-986 2015,-1544 3230,-1301 1171,215 2072,1001 2500,2072 29,-185 615,2701 86,2701 -57,0 -57,-100 -243,-129l-400 -85c-243,328 -214,1943 -1457,1600 -829,-214 -1015,-1329 -643,-2015 528,-114 1114,0 1486,-457 371,-472 300,-957 -43,-1400 -300,-458 -1043,-458 -1386,-86 -558,614 -272,771 -186,1457l29 86c-115,0 -243,0 -343,-28l-301 -29c58,-586 429,-686 -71,-1358 -300,-414 -829,-528 -1300,-257 -858,558 -558,1829 600,1986 614,86 886,129 857,929 -28,429 -271,901 -671,1086 -1344,672 -1301,-1243 -1615,-1514l-457 371 0 0 0 0zm-100 -6130l57 -29 1143 1015 -29 0 -1386 1329 215 -2315 0 0zm6216 -186l100 57 214 2515 -29 0 -1586 -1371 1301 -1201 0 0 0 0zm-6431 -771c-214,1200 -371,1886 -428,3115 -315,2758 -343,6316 3801,6373 1972,71 3243,-1201 3743,-3144 186,-872 29,-2229 29,-3258 0,-1200 -214,-2072 -372,-3215 -400,157 -1143,929 -1457,1272 -957,1043 -586,371 -1858,371 -428,0 -800,0 -1229,115 -500,185 -400,100 -814,-300 -243,-258 -1172,-1244 -1415,-1329l0 0 0 0z"/>
  <path class="fil3" d="M41707 8731c28,429 -343,800 -772,800 -443,29 -814,-314 -843,-772 0,-443 343,-400 772,-443 443,0 843,-57 843,415z"/>
  <ellipse class="fil2" cx="5054" cy="5630" rx="114" ry="386"/>
 </g>
</svg>
